<svg xmlns="http://www.w3.org/2000/svg" version="1.1" xmlns:xlink="http://www.w3.org/1999/xlink" xmlns:svgjs="http://svgjs.com/svgjs" width="1440" height="560" preserveAspectRatio="none" viewBox="0 0 1440 560"><g mask="url(&quot;#SvgjsMask1013&quot;)" fill="none"><rect width="1440" height="560" x="0" y="0" fill="rgba(17, 17, 17, 1)"></rect><path d="M1057.26 377.27a0.36 0.36 0 1 0 0.37-0.62z" fill="rgba(0, 0, 0, 1)"></path><path d="M1233.95 502.5 a16.75 16.75 0 1 0 33.5 0 a16.75 16.75 0 1 0 -33.5 0z" stroke="rgba(0, 0, 0, 1)"></path><path d="M1324.61 164.08L1327.85 164.08L1327.85 167.32L1324.61 167.32z" stroke="rgba(0, 0, 0, 1)"></path><path d="M211.57 161.89a17.69 17.69 0 1 0-33.76 10.57z" fill="rgba(214, 192, 9, 1)"></path><path d="M754.19 219.83L796.76 219.83L796.76 253.72L754.19 253.72z" stroke="rgba(0, 0, 0, 1)"></path><path d="M1067.99 343.28 a36.36 36.36 0 1 0 72.72 0 a36.36 36.36 0 1 0 -72.72 0z" fill="rgba(176, 159, 14, 1)"></path><path d="M272.02 170.27L286.58 170.27L286.58 211.53L272.02 211.53z" fill="rgba(214, 192, 9, 1)"></path><path d="M387 288.5a23.26 23.26 0 1 0 41.7 20.61z" fill="rgba(214, 192, 9, 1)"></path><path d="M541.06 192.97L559.8 192.97L559.8 211.71L541.06 211.71z" stroke="rgba(176, 159, 14, 1)"></path><path d="M925.74 16.82 a34.65 34.65 0 1 0 69.3 0 a34.65 34.65 0 1 0 -69.3 0z" stroke="rgba(0, 0, 0, 1)"></path><path d="M659.9 410.76 a54.59 54.59 0 1 0 109.18 0 a54.59 54.59 0 1 0 -109.18 0z" fill="rgba(0, 0, 0, 1)"></path><path d="M1422.7 284.12a35.4 35.4 0 1 0-26.14-65.8z" fill="rgba(0, 0, 0, 1)"></path><path d="M1431.93 494.89a37.16 37.16 0 1 0-66.65-32.88z" stroke="rgba(214, 192, 9, 1)"></path><path d="M988.03 91.16L1010.96 91.16L1010.96 126.08L988.03 126.08z" fill="rgba(176, 159, 14, 1)"></path><path d="M1236.12 486.21L1288.88 486.21L1288.88 530.62L1236.12 530.62z" fill="rgba(0, 0, 0, 1)"></path><path d="M154.69 345.74 a42.02 42.02 0 1 0 84.04 0 a42.02 42.02 0 1 0 -84.04 0z" stroke="rgba(214, 192, 9, 1)"></path><path d="M247.28 266.8a51 51 0 1 0-7.32 101.74z" stroke="rgba(214, 192, 9, 1)"></path><path d="M1426.62 118.43L1447.26 118.43L1447.26 139.07L1426.62 139.07z" fill="rgba(0, 0, 0, 1)"></path><path d="M890.9 115.41L892.79 115.41L892.79 143.87L890.9 143.87z" stroke="rgba(0, 0, 0, 1)"></path><path d="M485.99 496.72a16.28 16.28 0 1 0-8.36-31.47z" stroke="rgba(0, 0, 0, 1)"></path><path d="M435.02 578.17a44.19 44.19 0 1 0-28.3-83.73z" stroke="rgba(176, 159, 14, 1)"></path><path d="M886.2 178.38 a10.03 10.03 0 1 0 20.06 0 a10.03 10.03 0 1 0 -20.06 0z" stroke="rgba(214, 192, 9, 1)"></path><path d="M402.77 288.66 a37.89 37.89 0 1 0 75.78 0 a37.89 37.89 0 1 0 -75.78 0z" fill="rgba(176, 159, 14, 1)"></path><path d="M0.28 337.72L48.68 337.72L48.68 381.72L0.28 381.72z" fill="rgba(214, 192, 9, 1)"></path><path d="M180.29 174.09L180.73 174.09L180.73 213.37L180.29 213.37z" stroke="rgba(176, 159, 14, 1)"></path><path d="M1052.58 76.4a1.19 1.19 0 1 0-2.09-1.13z" fill="rgba(0, 0, 0, 1)"></path><path d="M914.44 243.77L948.15 243.77L948.15 277.48L914.44 277.48z" fill="rgba(176, 159, 14, 1)"></path><path d="M811.06 257.39L834.56 257.39L834.56 280.89L811.06 280.89z" fill="rgba(176, 159, 14, 1)"></path><path d="M377.76 138.99a17.71 17.71 0 1 0-32.3-14.55z" fill="rgba(0, 0, 0, 1)"></path><path d="M346.66 90.26L352.43 90.26L352.43 96.03L346.66 96.03z" stroke="rgba(0, 0, 0, 1)"></path><path d="M481.15 409.81L515.41 409.81L515.41 444.07L481.15 444.07z" fill="rgba(0, 0, 0, 1)"></path><path d="M736.7 124.87 a51.23 51.23 0 1 0 102.46 0 a51.23 51.23 0 1 0 -102.46 0z" stroke="rgba(214, 192, 9, 1)"></path><path d="M693.98 129.52L698.27 129.52L698.27 133.81L693.98 133.81z" stroke="rgba(0, 0, 0, 1)"></path></g><defs><mask id="SvgjsMask1013"><rect width="1440" height="560" fill="#ffffff"></rect></mask></defs></svg>