<svg xmlns="http://www.w3.org/2000/svg" version="1.1" xmlns:xlink="http://www.w3.org/1999/xlink" xmlns:svgjs="http://svgjs.com/svgjs" width="1440" height="560" preserveAspectRatio="none" viewBox="0 0 1440 560"><g mask="url(&quot;#SvgjsMask1010&quot;)" fill="none"><rect width="1440" height="560" x="0" y="0" fill="rgba(17, 17, 17, 1)"></rect><path d="M590.49 334.47 a55.08 55.08 0 1 0 110.16 0 a55.08 55.08 0 1 0 -110.16 0z" fill="rgba(194, 137, 199, 0.7254901960784313)"></path><path d="M1106.74 559.7 a9.46 9.46 0 1 0 18.92 0 a9.46 9.46 0 1 0 -18.92 0z" fill="rgba(194, 137, 199, 0.7254901960784313)"></path><path d="M357.72 487a25.86 25.86 0 1 0-50.36-11.76z" fill="rgba(0, 0, 0, 1)"></path><path d="M803.55 199.74L856.23 199.74L856.23 252.42L803.55 252.42z" fill="rgba(194, 137, 199, 0.7254901960784313)"></path><path d="M1275.97 47.6L1314.85 47.6L1314.85 86.48L1275.97 86.48z" fill="rgba(200, 18, 217, 0.7254901960784313)"></path><path d="M1346.86 426.75L1400.52 426.75L1400.52 480.41L1346.86 480.41z" fill="rgba(194, 137, 199, 0.7254901960784313)"></path><path d="M1336.64 331.38 a34.32 34.32 0 1 0 68.64 0 a34.32 34.32 0 1 0 -68.64 0z" stroke="rgba(0, 0, 0, 1)"></path><path d="M1088.54 564.8a15.9 15.9 0 1 0-0.66-31.8z" stroke="rgba(194, 137, 199, 0.7254901960784313)"></path><path d="M250.98 196.38L289.86 196.38L289.86 235.26L250.98 235.26z" stroke="rgba(0, 0, 0, 1)"></path><path d="M800.39 141.34a14.42 14.42 0 1 0-26.96 10.26z" fill="rgba(0, 0, 0, 1)"></path><path d="M1056.25 225.29L1066.51 225.29L1066.51 241.01L1056.25 241.01z" fill="rgba(200, 18, 217, 0.7254901960784313)"></path><path d="M590.45-4.67a34.45 34.45 0 1 0 30.86 61.6z" fill="rgba(200, 18, 217, 0.7254901960784313)"></path><path d="M1349.44 353.26L1377.57 353.26L1377.57 381.39L1349.44 381.39z" stroke="rgba(200, 18, 217, 0.7254901960784313)"></path><path d="M602.05 359.95L623.8 359.95L623.8 397.55L602.05 397.55z" stroke="rgba(200, 18, 217, 0.7254901960784313)"></path><path d="M365.61-19.17a33 33 0 1 0-2.02 65.97z" stroke="rgba(200, 18, 217, 0.7254901960784313)"></path><path d="M1287.65 138.46 a18.47 18.47 0 1 0 36.94 0 a18.47 18.47 0 1 0 -36.94 0z" stroke="rgba(194, 137, 199, 0.7254901960784313)"></path><path d="M763.99 544.12L784.14 544.12L784.14 556.13L763.99 556.13z" fill="rgba(194, 137, 199, 0.7254901960784313)"></path><path d="M314.26 446.25 a48.82 48.82 0 1 0 97.64 0 a48.82 48.82 0 1 0 -97.64 0z" fill="rgba(200, 18, 217, 0.7254901960784313)"></path><path d="M624.31 316.44 a5.97 5.97 0 1 0 11.94 0 a5.97 5.97 0 1 0 -11.94 0z" stroke="rgba(194, 137, 199, 0.7254901960784313)"></path><path d="M1176.02 515.25L1219.93 515.25L1219.93 522.28L1176.02 522.28z" fill="rgba(0, 0, 0, 1)"></path><path d="M465.42 377.82 a43.37 43.37 0 1 0 86.74 0 a43.37 43.37 0 1 0 -86.74 0z" fill="rgba(200, 18, 217, 0.7254901960784313)"></path><path d="M1417.46 153.87L1448.36 153.87L1448.36 194.69L1417.46 194.69z" stroke="rgba(0, 0, 0, 1)"></path><path d="M1282.72 170.41a34.97 34.97 0 1 0 68.98 11.52z" fill="rgba(0, 0, 0, 1)"></path><path d="M557.62 63.67a29.81 29.81 0 1 0 16.33 57.34z" fill="rgba(200, 18, 217, 0.7254901960784313)"></path><path d="M967.09 359.3 a37.33 37.33 0 1 0 74.66 0 a37.33 37.33 0 1 0 -74.66 0z" stroke="rgba(0, 0, 0, 1)"></path><path d="M597.34 415.13a31.96 31.96 0 1 0-42.3-47.92z" fill="rgba(0, 0, 0, 1)"></path><path d="M1301.14 71.56L1319.75 71.56L1319.75 118.35L1301.14 118.35z" stroke="rgba(200, 18, 217, 0.7254901960784313)"></path><path d="M225.91 337.14L256.56 337.14L256.56 375.76L225.91 375.76z" fill="rgba(0, 0, 0, 1)"></path><path d="M187.69 357.86L209.48 357.86L209.48 379.65L187.69 379.65z" stroke="rgba(200, 18, 217, 0.7254901960784313)"></path><path d="M242.3 333.8L284.47 333.8L284.47 354.51L242.3 354.51z" stroke="rgba(200, 18, 217, 0.7254901960784313)"></path><path d="M183.42 450.4a6.66 6.66 0 1 0 13.24 1.38z" fill="rgba(200, 18, 217, 0.7254901960784313)"></path><path d="M370.38 363.76L396.4 363.76L396.4 415.5L370.38 415.5z" fill="rgba(194, 137, 199, 0.7254901960784313)"></path><path d="M1269.01 314.14L1298.89 314.14L1298.89 314.61L1269.01 314.61z" fill="rgba(0, 0, 0, 1)"></path></g><defs><mask id="SvgjsMask1010"><rect width="1440" height="560" fill="#ffffff"></rect></mask></defs></svg>